<mxfile host="app.diagrams.net" modified="2023-09-11T11:58:29.676Z" agent="Mozilla/5.0 (Windows NT 10.0; Win64; x64) AppleWebKit/537.36 (KHTML, like Gecko) Chrome/116.0.0.0 Safari/537.36" etag="0A--VNTqABGOhrsWUyPz" version="21.7.4" type="device">
  <diagram name="Page-1" id="toWIWMQ7TQjY3jc9s7tE">
    <mxGraphModel dx="1434" dy="782" grid="1" gridSize="10" guides="1" tooltips="1" connect="1" arrows="1" fold="1" page="1" pageScale="1" pageWidth="827" pageHeight="1169" math="0" shadow="0">
      <root>
        <mxCell id="0" />
        <mxCell id="1" parent="0" />
        <mxCell id="crBsrmJlSZnnE38iz0nq-1" value="" style="whiteSpace=wrap;html=1;aspect=fixed;" vertex="1" parent="1">
          <mxGeometry x="170" y="100" width="430" height="430" as="geometry" />
        </mxCell>
        <mxCell id="crBsrmJlSZnnE38iz0nq-2" value="Salon&lt;br&gt;Service Layer&lt;br&gt;WebController layer&lt;br&gt;Repository Layer" style="rounded=1;whiteSpace=wrap;html=1;" vertex="1" parent="1">
          <mxGeometry x="200" y="130" width="120" height="60" as="geometry" />
        </mxCell>
        <mxCell id="crBsrmJlSZnnE38iz0nq-3" value="Main Module" style="rounded=0;whiteSpace=wrap;html=1;" vertex="1" parent="1">
          <mxGeometry x="170" y="40" width="120" height="60" as="geometry" />
        </mxCell>
        <mxCell id="crBsrmJlSZnnE38iz0nq-4" value="User" style="rounded=1;whiteSpace=wrap;html=1;" vertex="1" parent="1">
          <mxGeometry x="380" y="130" width="120" height="60" as="geometry" />
        </mxCell>
        <mxCell id="crBsrmJlSZnnE38iz0nq-5" value="Booking" style="rounded=1;whiteSpace=wrap;html=1;" vertex="1" parent="1">
          <mxGeometry x="350" y="370" width="120" height="60" as="geometry" />
        </mxCell>
      </root>
    </mxGraphModel>
  </diagram>
</mxfile>
